<?xml version="1.0" encoding="UTF-8"?>
<svg width="16px" height="16px" viewBox="0 0 16 16" version="1.1" xmlns="http://www.w3.org/2000/svg" xmlns:xlink="http://www.w3.org/1999/xlink">
    <!-- Generator: Sketch 52.5 (67469) - http://www.bohemiancoding.com/sketch -->
    <title>search</title>
    <desc>Created with Sketch.</desc>
    <g id="组件" stroke="none" stroke-width="1" fill="none" fill-rule="evenodd">
        <g id="筛选面板" transform="translate(-2046.000000, -3882.000000)" fill="#BFBFBF">
            <g id="search" transform="translate(2046.000000, 3882.000000)">
                <path d="M7.03714063,11.5526156 C6.428,11.5526156 5.83760938,11.4335375 5.28235938,11.1986937 C4.74557812,10.9716469 4.26326563,10.6463969 3.84884375,10.231975 C3.4344375,9.81756875 3.10917187,9.33525625 2.88214062,8.79845937 C2.64729688,8.24320937 2.52821875,7.65283437 2.52821875,7.04367812 C2.52821875,6.4345375 2.64729688,5.84414687 2.88214062,5.2889125 C3.10917187,4.75211562 3.4344375,4.26980312 3.84884375,3.85538125 C4.26326563,3.440975 4.74557812,3.115725 5.28235938,2.88867813 C5.83760938,2.65383437 6.428,2.53475625 7.03714063,2.53475625 C7.64628125,2.53475625 8.23667188,2.65383437 8.79192187,2.88867813 C9.32870313,3.115725 9.81101562,3.440975 10.2254375,3.85538125 C10.6398438,4.26980312 10.9651094,4.75211562 11.1921406,5.2889125 C11.4269844,5.84414687 11.5460625,6.4345375 11.5460625,7.04367812 C11.5460625,7.65283437 11.4269844,8.24320937 11.1921406,8.79845937 C10.9651094,9.33525625 10.6398438,9.81756875 10.2254375,10.231975 C9.81101562,10.6463969 9.32870313,10.9716469 8.79192187,11.1986937 C8.23667188,11.4335375 7.64628125,11.5526156 7.03714063,11.5526156 Z M14.344125,13.6543344 L11.2651562,10.57535 C12.0647344,9.61913125 12.5460625,8.38764687 12.5460625,7.04367812 C12.5460625,4.00119375 10.0796406,1.53475625 7.03714062,1.53475625 C3.99464062,1.53475625 1.52821875,4.00119375 1.52821875,7.04367812 C1.52821875,10.0861781 3.99464062,12.5526156 7.03714062,12.5526156 C8.37560937,12.5526156 9.60254687,12.0752094 10.5570781,11.281475 L13.6370469,14.3614437 L14.344125,13.6543344 Z" id="Fill-3"></path>
            </g>
        </g>
    </g>
</svg>